<?xml version="1.0" encoding="UTF-8"?><svg id="b" xmlns="http://www.w3.org/2000/svg" viewBox="0 0 331.97 331.97"><g id="c"><path d="m230.93,107.22c11.08,22.53,11,49.22-.21,71.68l-16.85,33.76-.02-.02-33.09,66.33h-.12s-31.47-63.72-31.47-63.72l-4.64-9.45c-4.8-9.77-18.26-9.77-23.06,0l-30.73,62.46-27.26,55.21c-2.58,5.22-7.76,8.51-13.43,8.51H15.1c-11.27,0-18.56-12.36-13.43-22.76l20.22-40.95L148.19,11.31c7.41-15.07,28.18-15.07,35.59,0l47.15,95.91Z" style="fill:#fcfeff; stroke-width:0px;"/><path d="m258.33,259.49l-26.54,53.2c-1.5,3-1.51,6.56-.02,9.56l1.99,4.03c1.72,3.49,5.19,5.69,8.97,5.69h-22.78c-7.98,0-15.29-4.63-18.92-12l-4.21-8.51c-3.13-6.34-3.12-13.86.04-20.18l56.02-112.31c2.77-5.53,10.39-5.51,13.13.04l8.88,18.01,2.79,5.69,20.86,42.21,28.21,57.08,3.54,7.19c5.14,10.41-2.15,22.78-13.43,22.78h-28.23c5.35,0,8.8-5.86,6.37-10.79l-1.68-3.41-13.37-27.04-9.88-20-1.32-2.69-4.21-8.53c-1.29-2.63-4.9-2.64-6.21-.02Z" style="fill:#fcfeff; stroke-width:0px;"/></g></svg>