<?xml version="1.0" encoding="UTF-8"?><svg id="b" xmlns="http://www.w3.org/2000/svg" viewBox="0 0 1008 1008"><g id="c"><rect width="1008" height="1008" rx="95.7" ry="95.7" style="fill:#3461a1; stroke-width:0px;"/><path d="m671.33,352.57c28.53,58.06,28.33,126.81-.54,184.67l-43.4,86.98-.05-.05-85.26,170.88h-.29l-81.06-164.15-11.97-24.33c-12.37-25.17-47.04-25.17-59.42,0l-79.15,160.91-70.24,142.22c-6.65,13.45-20.01,21.93-34.59,21.93h-90.05c-29.05,0-47.83-31.83-34.59-58.65l52.11-105.5L458.17,105.5c19.09-38.84,72.6-38.84,91.69,0l121.47,247.1v-.03Z" style="fill:#fcfeff; stroke-width:0px;"/><path d="m741.92,744.87l-68.38,137.06c-3.86,7.73-3.89,16.89-.05,24.63l5.13,10.38c4.43,8.99,13.38,14.66,23.11,14.66h-58.69c-20.55,0-39.4-11.93-48.74-30.92l-10.85-21.93c-8.06-16.34-8.04-35.71.11-51.98l144.33-289.34c7.13-14.24,26.77-14.2,33.82.11l22.88,46.4,7.19,14.66,53.74,108.74,72.67,147.05,9.11,18.52c13.24,26.81-5.53,58.69-34.59,58.69h-72.72c13.78,0,22.68-15.1,16.41-27.81l-4.32-8.79-34.44-69.67-25.45-51.52-3.39-6.93-10.85-21.98c-3.32-6.77-12.62-6.8-16-.05l-.02-.02Z" style="fill:#fcfeff; stroke-width:0px;"/></g></svg>