<?xml version="1.0" encoding="UTF-8"?><svg id="b" xmlns="http://www.w3.org/2000/svg" xmlns:xlink="http://www.w3.org/1999/xlink" viewBox="0 0 1008 1008"><defs><filter id="d" filterUnits="userSpaceOnUse"><feOffset dx="0" dy="0"/><feGaussianBlur result="e" stdDeviation="19"/><feFlood flood-color="#000" flood-opacity=".75"/><feComposite in2="e" operator="in"/><feComposite in="SourceGraphic"/></filter></defs><g id="c"><rect x="57.46" y="57.45" width="892.83" height="892.83" rx="66.37" ry="66.37" style="fill:#3461a1; filter:url(#d); stroke-width:0px;"/><path d="m611.83,406.18c18.41,37.46,18.28,81.82-.35,119.15l-28,56.12-.03-.03-55.01,110.25h-.19s-52.3-105.91-52.3-105.91l-7.72-15.7c-7.98-16.24-30.35-16.24-38.34,0l-51.07,103.82-45.32,91.76c-4.29,8.68-12.91,14.15-22.32,14.15h-58.1c-18.74,0-30.86-20.54-22.32-37.84l33.62-68.07,209.92-427.11c12.32-25.06,46.84-25.06,59.16,0l78.37,159.43Z" style="fill:#fcfeff; stroke-width:0px;"/><path d="m657.38,659.29l-44.12,88.43c-2.49,4.99-2.51,10.9-.03,15.89l3.31,6.7c2.86,5.8,8.63,9.46,14.91,9.46h-37.87c-13.26,0-25.42-7.7-31.45-19.95l-7-14.15c-5.2-10.54-5.19-23.04.07-33.54l93.12-186.68c4.6-9.19,17.27-9.16,21.82.07l14.76,29.94,4.64,9.46,34.67,70.16,46.89,94.88,5.88,11.95c8.54,17.3-3.57,37.87-22.32,37.87h-46.92c8.89,0,14.63-9.74,10.59-17.94l-2.79-5.67-22.22-44.95-16.42-33.24-2.19-4.47-7-14.18c-2.14-4.37-8.14-4.39-10.32-.03Z" style="fill:#fcfeff; stroke-width:0px;"/></g></svg>