<?xml version="1.0" encoding="utf-8"?>
<!-- Generator: Adobe Illustrator 27.8.1, SVG Export Plug-In . SVG Version: 6.00 Build 0)  -->
<svg version="1.1" id="Layer_1" xmlns="http://www.w3.org/2000/svg" xmlns:xlink="http://www.w3.org/1999/xlink" x="0px" y="0px"
	 viewBox="0 0 800 800" style="enable-background:new 0 0 800 800;" xml:space="preserve">
<style type="text/css">
	.st0{fill:#004C80;}
</style>
<path class="st0" d="M675,775H125c-27.6,0-50-22.4-50-50V175c0-27.6,22.4-50,50-50h50v25c0,41.4,33.6,75,75,75s75-33.6,75-75v-25
	h150v25c0,41.4,33.6,75,75,75s75-33.6,75-75v-25h50c27.6,0,50,22.4,50,50v550C725,752.6,702.6,775,675,775z M675,300H125v425h550
	V300z M250,425h-75v-75h75V425z M250,550h-75v-75h75V550z M250,675h-75v-75h75V675z M375,425h-75v-75h75V425z M375,550h-75v-75h75
	V550z M375,675h-75v-75h75V675z M500,425h-75v-75h75V425z M500,550h-75v-75h75V550z M500,675h-75v-75h75V675z M625,425h-75v-75h75
	V425z M625,550h-75v-75h75V550z M625,675h-75v-75h75V675z M549.2,200c-27.2,0-49.2-22.1-49.2-49.2V99.2C500,72,522,50,549.2,50
	c27.2,0,49.2,22,49.2,49.2v51.6C598.5,177.9,576.4,200,549.2,200z M249.2,200c-27.2,0-49.2-22.1-49.2-49.2V99.2
	C200,72,222,50,249.2,50c27.2,0,49.2,22,49.2,49.2v51.6C298.4,177.9,276.4,200,249.2,200z"/>
</svg>
