<?xml version="1.0" encoding="utf-8"?>
<!-- Generator: Adobe Illustrator 27.8.1, SVG Export Plug-In . SVG Version: 6.00 Build 0)  -->
<svg version="1.1" id="Layer_1" xmlns="http://www.w3.org/2000/svg" xmlns:xlink="http://www.w3.org/1999/xlink" x="0px" y="0px"
	 viewBox="0 0 800 800" style="enable-background:new 0 0 800 800;" xml:space="preserve">
<style type="text/css">
	.st0{fill-rule:evenodd;clip-rule:evenodd;fill:#004C80;}
</style>
<g id="Page-1">
	<g id="work-case" transform="translate(42.666667, 64.000000)">
		<path id="Combined-Shape-Copy" class="st0" d="M46.2,353.3c73.8,26.4,150.9,42.7,229.1,48.4c8.7,0.6,15.4,7.9,15.4,16.6v34.4
			c0,9.2,7.5,16.7,16.7,16.7h100c9.2,0,16.7-7.5,16.7-16.7v-34.5c0-8.7,6.7-15.9,15.4-16.6c78.1-6.2,155.1-22.1,229.2-47.4
			c10.8-3.7,22.1,4.3,22.1,15.8V586c0,9.2-7.5,16.7-16.7,16.7H40.7c-9.2,0-16.7-7.5-16.7-16.7V369C24,357.5,35.4,349.4,46.2,353.3z
			 M462.2,40.9l23.6,23.6c3.1,3.1,4.9,7.4,4.9,11.8v43.1c0,9.2,7.5,16.7,16.7,16.7H674c9.2,0,16.7,7.5,16.7,16.7V298
			c0,7-4.4,13.3-11,15.7c-98.9,35.5-203.1,54.4-308.3,55.6l0,0h-24c-110.6-1.2-220-22-323.3-61.3l0,0V152.7
			c0-9.2,7.5-16.7,16.7-16.7h166.7c9.2,0,16.7-7.5,16.7-16.7V76.2c0-4.4,1.8-8.7,4.9-11.8l23.6-23.6c3.1-3.1,7.4-4.9,11.8-4.9h186.2
			C454.9,36,459.1,37.8,462.2,40.9z M407.3,102.7h-100c-9.2,0-16.7,7.5-16.7,16.7v0c0,9.2,7.5,16.7,16.7,16.7h100
			c9.2,0,16.7-7.5,16.7-16.7v0C424,110.1,416.5,102.7,407.3,102.7z"/>
	</g>
</g>
</svg>
