<?xml version="1.0" encoding="utf-8"?>
<!-- Generator: Adobe Illustrator 27.8.1, SVG Export Plug-In . SVG Version: 6.00 Build 0)  -->
<svg version="1.1" id="home-alt-3" xmlns="http://www.w3.org/2000/svg" xmlns:xlink="http://www.w3.org/1999/xlink" x="0px" y="0px"
	 viewBox="0 0 800 800" style="enable-background:new 0 0 800 800;" xml:space="preserve">
<style type="text/css">
	.st0{fill:#004C80;}
</style>
<path class="st0" d="M723.7,343l-300-300c-13-13.1-34.1-13.2-47.1-0.2c-0.1,0.1-0.1,0.1-0.2,0.2l-300,300c-9.5,9.6-12.2,23.9-7,36.3
	c5.1,12.4,17.2,20.6,30.7,20.7h33.3v300c0,18.4,14.9,33.3,33.3,33.3h100c18.4,0,33.3-14.9,33.3-33.3V500c0-18.4,14.9-33.3,33.3-33.3
	h133.3c18.4,0,33.3,14.9,33.3,33.3v200c0,18.4,14.9,33.3,33.3,33.3h100c18.4,0,33.3-14.9,33.3-33.3V400H700
	c13.5-0.1,25.6-8.2,30.7-20.7C735.9,366.9,733.1,352.6,723.7,343z"/>
</svg>
