<?xml version="1.0" encoding="utf-8"?>
<!-- Generator: Adobe Illustrator 27.8.1, SVG Export Plug-In . SVG Version: 6.00 Build 0)  -->
<svg version="1.1" id="Icons" xmlns="http://www.w3.org/2000/svg" xmlns:xlink="http://www.w3.org/1999/xlink" x="0px" y="0px"
	 viewBox="0 0 800 800" style="enable-background:new 0 0 800 800;" xml:space="preserve">
<style type="text/css">
	.st0{fill:#004C80;}
</style>
<g>
	<path class="st0" d="M422.5,452.5c-5,5-10,12.5-15,17.5C380,445,355,420,330,392.5c7.5-5,12.5-10,17.5-15c55-55,50-132.5-17.5-200
		s-145-75-200-17.5c-57.5,57.5-67.5,162.5-22.5,232.5c75,112.5,187.5,225,300,300c30,20,65,30,102.5,30c47.5,0,97.5-17.5,130-50
		c55-55,50-132.5-17.5-200C555,402.5,480,395,422.5,452.5z"/>
	<path class="st0" d="M450,77.5c-15,0-25,10-25,25s10,25,25,25c122.5,0,222.5,100,222.5,222.5c0,15,10,25,25,25s25-10,25-25
		C725,197.5,602.5,77.5,450,77.5z"/>
	<path class="st0" d="M550,342.5c0,15,10,25,25,25s25-10,25-25C600,265,532.5,200,450,200c-15,0-25,10-25,25s10,25,25,25
		C505,250,550,292.5,550,342.5z"/>
</g>
</svg>
