<?xml version="1.0" encoding="utf-8"?>
<!-- Generator: Adobe Illustrator 27.8.1, SVG Export Plug-In . SVG Version: 6.00 Build 0)  -->
<svg version="1.1" id="world" xmlns="http://www.w3.org/2000/svg" xmlns:xlink="http://www.w3.org/1999/xlink" x="0px" y="0px"
	 viewBox="0 0 800 800" style="enable-background:new 0 0 800 800;" xml:space="preserve">
<style type="text/css">
	.st0{fill:#004C80;}
</style>
<path class="st0" d="M283.3,400c0,33.3,0,66.7,4,100h-7.7c-36.1,10.3-70.7,25.4-102.7,45c-19.2,11.5-37.2,24.9-53.7,40
	C48,472.7,48,326,123.3,213.7c16.5,15.1,34.5,28.5,53.7,40c31.8,20.1,66.3,35.7,102.3,46.3h8C284.7,333.3,283.3,366.7,283.3,400z
	 M143.3,187.3c16.4,15.3,34.4,28.8,53.7,40.3c28.7,17.1,59.5,30.2,91.7,39l0,0c3.8-39.9,10.5-79.4,20-118.3
	c5.9-26.5,14.7-52.2,26.3-76.7C259.7,87.1,192.1,127.9,143.3,187.3z M463.7,72.7c11.6,24.5,20.4,50.2,26.3,76.7
	c9.5,38.6,16.2,77.8,20,117.3l0,0c32.3-9,63.3-22.4,92-39.7c19.6-11.2,37.9-24.5,54.7-39.7C607.4,128.1,539.3,87.6,463.7,72.7z
	 M322.7,524.3c4.3,46.4,12.5,92.4,24.7,137.3c6.3,25.2,16.3,49.4,29.7,71.7h23h23c13.3-22.1,23.3-46,29.7-71
	c12.2-45,20.4-90.9,24.7-137.3C426.3,514.4,373.7,514.2,322.7,524.3z M480,309c-26.4,5.1-53.1,7.7-80,7.7c-26.9,0-53.6-2.6-80-7.7
	c-2.3,28.3-3.3,59-3.3,91s0,62.7,3.3,91.3c52.8-10.2,107.2-10.2,160,0c2.3-28.3,3.3-59,3.3-91S482.3,337.3,480,309z M452.7,138.3
	c-6.3-25.2-16.3-49.4-29.7-71.7h-23h-23c-13.3,22.1-23.3,46-29.7,71c-12.2,45-20.4,90.9-24.7,137.3c51,10.3,103.6,10.3,154.7,0
	C473,228.8,464.8,183.1,452.7,138.3L452.7,138.3z M676.7,214.3c-16.5,15.1-34.5,28.5-53.7,40c-32,19.8-66.5,35.2-102.7,45.7h-7.7
	c2.7,33.3,4,66.7,4,100s0,66.7-4,100l8,2c36,10.3,70.4,25.4,102.3,45c19.2,11.5,37.2,24.9,53.7,40c75.3-112.3,75.3-259,0-371.3
	L676.7,214.3z M603,572.3c-28.7-17.1-59.5-30.2-91.7-39l0,0c-3.8,39.9-10.5,79.4-20,118.3c-5.9,26.5-14.7,52.2-26.3,76.7
	c75.6-14.9,143.8-55.4,193-114.7C641.2,597.9,622.8,584.1,603,572.3z M310,650.7c-9.5-38.6-16.2-77.8-20-117.3l0,0
	c-32.3,9-63.3,22.4-92,39.7c-19.6,11.2-37.9,24.5-54.7,39.7c49.2,59.3,117.4,99.8,193,114.7C324.7,702.8,315.9,677.1,310,650.7z"/>
</svg>
